<svg width="4" height="16" viewBox="0 0 4 16" fill="none" xmlns="http://www.w3.org/2000/svg">
<path d="M1.97723 3.14478C1.62524 3.14731 1.35648 3.04123 1.17093 2.82655C0.985389 2.61188 0.891614 2.36454 0.889607 2.08455C0.888575 1.94055 0.911599 1.80439 0.95868 1.67605C1.00576 1.5477 1.07293 1.43122 1.16018 1.32659C1.25549 1.22991 1.36691 1.14911 1.49445 1.08419C1.63005 1.02722 1.78584 0.998099 1.96184 0.996837C2.12983 0.995633 2.27803 1.02257 2.40643 1.07765C2.54288 1.14068 2.65545 1.21987 2.74414 1.31524C2.83288 1.4186 2.90171 1.53411 2.95063 1.66177C2.99955 1.78942 3.02452 1.92524 3.02555 2.06924C3.02756 2.34923 2.93734 2.59789 2.75489 2.8152C2.57245 3.03251 2.31323 3.14237 1.97723 3.14478ZM2.02024 9.14463C1.66825 9.14715 1.39949 9.04108 1.21394 8.8264C1.0284 8.61172 0.934623 8.36439 0.932616 8.0844C0.931584 7.9404 0.954608 7.80423 1.00169 7.67589C1.04877 7.54755 1.11594 7.43107 1.20319 7.32644C1.2985 7.22975 1.40992 7.14895 1.53746 7.08404C1.67306 7.02706 1.82885 6.99794 2.00485 6.99668C2.17284 6.99548 2.32104 7.02242 2.44944 7.0775C2.58589 7.14052 2.69846 7.21972 2.78715 7.31508C2.87589 7.41845 2.94472 7.53396 2.99364 7.66161C3.04256 7.78926 3.06753 7.92509 3.06856 8.06909C3.07057 8.34908 2.98035 8.59773 2.7979 8.81505C2.61545 9.03236 2.35624 9.14222 2.02024 9.14463ZM2.06325 15.1445C1.71126 15.147 1.4425 15.0409 1.25695 14.8262C1.07141 14.6116 0.977633 14.3642 0.975626 14.0842C0.974593 13.9402 0.997618 13.8041 1.0447 13.6757C1.09178 13.5474 1.15895 13.4309 1.2462 13.3263C1.34151 13.2296 1.45293 13.1488 1.58047 13.0839C1.71607 13.0269 1.87186 12.9978 2.04786 12.9965C2.21585 12.9953 2.36405 13.0223 2.49245 13.0773C2.6289 13.1404 2.74147 13.2196 2.83016 13.3149C2.9189 13.4183 2.98773 13.5338 3.03665 13.6615C3.08556 13.7891 3.11054 13.9249 3.11157 14.0689C3.11358 14.3489 3.02336 14.5976 2.84091 14.8149C2.65846 15.0322 2.39924 15.1421 2.06325 15.1445Z" fill="#3D3D3D"/>
</svg>
